<?xml version="1.0" standalone="no"?>
<!DOCTYPE svg PUBLIC "-//W3C//DTD SVG 20010904//EN"
 "http://www.w3.org/TR/2001/REC-SVG-20010904/DTD/svg10.dtd">
<svg version="1.0" xmlns="http://www.w3.org/2000/svg"
 width="320.000000pt" height="320.000000pt" viewBox="0 0 320.000000 320.000000"
 preserveAspectRatio="xMidYMid meet">
<metadata>
Created by potrace 1.14, written by Peter Selinger 2001-2017
</metadata>
<g transform="translate(0.000000,320.000000) scale(0.100000,-0.100000)"
fill="#000000" stroke="none">
<path d="M451 3184 c-96 -20 -199 -70 -266 -131 -39 -35 -93 -108 -123 -168
-58 -113 -57 -92 -56 -1301 1 -610 4 -1125 8 -1144 16 -87 78 -203 144 -275
60 -66 162 -125 257 -151 66 -18 2282 -21 2367 -3 163 34 311 163 389 339 l24
55 3 1172 2 1172 -26 73 c-63 175 -184 292 -361 349 l-68 22 -1119 1 c-812 1
-1134 -2 -1175 -10z m2288 -197 c77 -20 166 -83 208 -150 59 -94 56 -24 57
-1222 2 -1187 3 -1160 -51 -1252 -33 -57 -107 -119 -173 -145 l-55 -21 -1115
-1 c-1034 0 -1119 1 -1165 17 -69 24 -123 64 -167 122 -77 101 -72 18 -72
1265 l1 1115 22 58 c25 63 103 152 159 181 79 41 84 41 1228 40 604 -1 1110
-4 1123 -7z"/>
<path d="M1018 2398 c-20 -7 -29 -18 -33 -41 -3 -18 -5 -389 -3 -825 3 -770 4
-794 22 -808 15 -11 61 -13 210 -13 317 3 469 30 651 118 213 104 355 309 396
572 11 72 8 315 -6 389 -9 50 -43 155 -67 209 -65 141 -187 260 -338 330 -51
23 -173 57 -240 67 -75 10 -563 12 -592 2z m557 -210 c16 -4 45 -11 63 -14
124 -20 262 -124 330 -246 99 -178 99 -533 0 -709 -75 -134 -194 -221 -362
-265 -84 -23 -102 -25 -258 -31 l-137 -5 0 642 0 641 167 -2 c91 -1 180 -6
197 -11z"/>
</g>
</svg>
